<svg xmlns="http://www.w3.org/2000/svg" width="10.679" height="11.186" viewBox="0 0 10.679 11.186">
  <path id="Icon_awesome-instagram" data-name="Icon awesome-instagram" d="M5.335,4.963A2.8,2.8,0,0,0,2.6,7.831,2.8,2.8,0,0,0,5.335,10.7,2.8,2.8,0,0,0,8.072,7.831,2.8,2.8,0,0,0,5.335,4.963Zm0,4.733a1.867,1.867,0,0,1,0-3.729,1.867,1.867,0,0,1,0,3.729Zm3.488-4.85a.639.639,0,1,1-.638-.669A.653.653,0,0,1,8.823,4.845Zm1.813.679a3.4,3.4,0,0,0-.862-2.344,3.1,3.1,0,0,0-2.237-.9c-.881-.052-3.523-.052-4.4,0a3.1,3.1,0,0,0-2.237.9A3.411,3.411,0,0,0,.032,5.522c-.05.924-.05,3.692,0,4.615a3.4,3.4,0,0,0,.862,2.344,3.105,3.105,0,0,0,2.237.9c.881.052,3.523.052,4.4,0a3.081,3.081,0,0,0,2.237-.9,3.422,3.422,0,0,0,.862-2.344c.05-.924.05-3.689,0-4.613ZM9.5,11.128a1.847,1.847,0,0,1-1.015,1.063,11.242,11.242,0,0,1-3.147.225,11.33,11.33,0,0,1-3.147-.225,1.847,1.847,0,0,1-1.015-1.063,12.9,12.9,0,0,1-.214-3.3,13,13,0,0,1,.214-3.3A1.847,1.847,0,0,1,2.188,3.47a11.242,11.242,0,0,1,3.147-.225,11.33,11.33,0,0,1,3.147.225A1.847,1.847,0,0,1,9.5,4.533a12.9,12.9,0,0,1,.214,3.3A12.9,12.9,0,0,1,9.5,11.128Z" transform="translate(0.005 -2.238)" fill="#fff"/>
</svg>
