<svg xmlns="http://www.w3.org/2000/svg" width="11.385" height="11.186" viewBox="0 0 11.385 11.186">
  <path id="Icon_metro-earth" data-name="Icon metro-earth" d="M8.263,1.928A5.643,5.643,0,0,0,2.571,7.521a5.643,5.643,0,0,0,5.692,5.593,5.643,5.643,0,0,0,5.692-5.593A5.643,5.643,0,0,0,8.263,1.928Zm0,10.487a5.04,5.04,0,0,1-1.97-.4L8.885,9.152a.346.346,0,0,0,.09-.232V7.871a.353.353,0,0,0-.356-.35,4.666,4.666,0,0,1-2.595-1.3.359.359,0,0,0-.252-.1H4.35a.353.353,0,0,0-.356.35v2.1a.349.349,0,0,0,.2.313l1.226.6v2.052A4.864,4.864,0,0,1,3.282,7.521a4.8,4.8,0,0,1,.48-2.1h1.3a.359.359,0,0,0,.252-.1l1.423-1.4a.347.347,0,0,0,.1-.247V2.83a5.077,5.077,0,0,1,3.605.291c-.046.038-.091.078-.134.121a2.072,2.072,0,0,0,0,2.966,2.149,2.149,0,0,0,1.508.615l.106,0a8.07,8.07,0,0,1-.093,4.067.343.343,0,0,0-.009.057,5.009,5.009,0,0,1-3.559,1.471Z" transform="translate(-2.571 -1.928)" fill="#fff"/>
</svg>
